# xmcd CD database file
#
# Track frame offsets:
#	150
#	14250
#	27675
#	45000
#	61425
#	75225
#	87975
#	94650
#	110250
#	128250
#	137475
#	147825
#	156300
#	165675
#	173775
#	184800
#	195825
#	213525
#	229275
#	244800
#	252525
#	268800
#	279675
#	294225
#	304050
#	317100
#	331350
#
# Disc length: 4690 seconds
#
# Revision: 0
# Processed by: cddbd v1.5.2PL0 Copyright (c) Steve Scherf et al.
# Submitted via: CDex 1.51
#
DISCID=7812501b
DTITLE=PLAVCI - GOLD
DYEAR=2003
DGENRE=Country
TTITLE0=Trpaslici svatba
TTITLE1=Jsem radej sam
TTITLE2=Nocni radio
TTITLE3=Blues pateho koutu pokoje
TTITLE4=Pan od peti piv
TTITLE5=Hej, pane muj
TTITLE6=Ustredni topeni
TTITLE7=Pisen za veceri
TTITLE8=Jarni laska
TTITLE9=Zalesak
TTITLE10=Lucie
TTITLE11=Provaz napnu
TTITLE12=Dzbanek hlineny
TTITLE13=Letat
TTITLE14=Bliz nejdi
TTITLE15=Lenka
TTITLE16=Sesli jsme se
TTITLE17=Clovek, delova koule
TTITLE18=Drak od bile sklay
TTITLE19=Na rameno kytaru
TTITLE20=Jeste krok
TTITLE21=Neotalej
TTITLE22=Vim, ze kdyz je nejhur
TTITLE23=Laska je vec kouzelna
TTITLE24=Vitam vas
TTITLE25=Pole s bavlnou
TTITLE26=Kopej hrob muj
EXTD=YEAR: 2003
EXTT0=
EXTT1=
EXTT2=
EXTT3=
EXTT4=
EXTT5=
EXTT6=
EXTT7=
EXTT8=
EXTT9=
EXTT10=
EXTT11=
EXTT12=
EXTT13=
EXTT14=
EXTT15=
EXTT16=
EXTT17=
EXTT18=
EXTT19=
EXTT20=
EXTT21=
EXTT22=
EXTT23=
EXTT24=
EXTT25=
EXTT26=
PLAYORDER=
